<?xml version="1.0" encoding="UTF-8"?>
<svg id="Layer_2" data-name="Layer 2" xmlns="http://www.w3.org/2000/svg" viewBox="0 0 572 268.73">
  <defs>
    <style>
      .cls-1 {
        fill-rule: evenodd;
      }
    </style>
  </defs>
  <g id="_Layer_" data-name="&amp;lt;Layer&amp;gt;">
    <path class="cls-1" d="M215.42,21.33c15.9-19.98,55.51-13.93,62.44,10.24,35.97-7.54,66.6,16.57,58.35,53.23,17.18-3.23,45.31-8.5,57.32,3.07,15.22-14.42,97.1-41.16,93.15,5.12,43.65-9.36,71.93,21.08,57.32,60.4,26.9-2.95,35.85,27.63,20.48,44.02-3.62,57.76-96.17,47.1-145.36,37.88-10.34,9.18-29.98,3.69-39.92-2.05-23.67,12.35-67.99,8.87-95.2,2.05-20.74,36.76-120.57,45.72-154.57,14.33-32.3,7.78-69.48.14-90.08-13.31-29.16,34.55-62.23-52.01-17.4-54.25C1.24,156.88,4.09,110.29,48.57,113.46c-3.63-18.16,12.38-30.66,31.73-28.66,9.03.93,16.43,8.76,23.54,7.17C76.89,25.36,175.61-32.77,215.42,21.33ZM401.73,229.13c-29.26-17.45,22.41-28.56,21.5-1.02,41.71,7.14,120.74,15.89,132.05-21.5-1.1,2.99-4.87,3.32-9.21,3.07-13.61-8.74-8.3-28.26,6.14-28.66,4.48-.12,6.35,3.41,9.21,2.05,2.34-1.75.38-7.81,1.02-11.26-7.96-5.38-22.3-4.43-31.73-1.02-3.72-2.42-5.87-6.42-7.17-11.26,8.38-8.08,15.17-27.71,8.19-39.92-9.08-15.89-40.45-10.57-55.28-4.09-5.35,5.91-9.07,13.45-17.4,16.38-26.2-18.74,12.33-27.9,14.33-46.06-25.75-9.89-56.58,1.9-72.68,14.33,5.87,17.94-25.4,44.85-28.66,20.47-1.86-13.88,12.96-20.71,11.26-25.59-15.09-5.94-34.58-.41-51.18,1.02-5.4,9.61-10.16,19.87-19.45,25.59-11.75-11.16,1.58-32.14,14.33-34.8,7.51-30.3-19.61-43.82-46.06-36.85-2.79,5.4-3.83,12.54-10.24,14.33-4.72-3.54-11.37-9.91-11.26-17.4.08-5.33,4.59-6.88,4.09-11.26-4.17-16.45-31.25-19.59-40.95-6.14,11.5,7.88,21.94,47.3,1.02,48.11-15.63.61-22.82-23.54-17.4-40.95-37.16-27.28-95.43,6.45-95.2,46.06.06,10.84,5.49,20.02,9.21,25.59-8.88,3.24-11.07-8.59-15.36-13.31,2.06,6.77-.4,14.38-5.12,17.4-7.08-6.69-24.8-15.93-35.83-6.14-4.21,9.68,8.92,13.1,10.24,19.45.97,4.71-1.33,11.66-7.17,14.33-6.96-1.23-8.13-8.25-13.31-11.26-13.31-1.15-29.83,1.45-32.76,12.28-4.16,15.37,9.26,29.89,15.36,39.92,14.86-4.27,28.44,15.66,13.31,19.45-6.39,1.6-10.8-6.18-17.4-7.17-24.51-3.65-28.5,27.93-7.17,37.88,6.67-3.37.94-9.65,3.07-15.36,1.64-3.82,6.89-4.03,12.28-4.09,3.97.12,1.4,6.79,5.12,7.17,16.96,10.34,42.9,17.15,70.63,13.31-22.5-36.25,51.92-46.47,54.25-15.36,1.12,14.92-11.59,22.25-21.5,28.66,36.39,11.72,99.06,9.71,120.79-14.33-8.51-4.06-23.96-9.45-21.5-21.5,3.31-16.21,45.08-7.7,37.88,16.38,25.41,5.2,59.19,9.17,82.92,2.05.41-4.84-4.2-4.67-3.07-10.24,5.53-5.44,24.85-3.94,19.45,7.17,5.75.41,11.91,5.81,16.38,4.09ZM222.59,70.46c8.1-9.77-3.25-22.18-10.24-26.62-2.47,11.57.95,23.66,10.24,26.62ZM383.31,118.57c1.21-2.59,6.7-6.21,5.12-8.19-1.58,2.22-6.85,6.05-5.12,8.19ZM549.14,199.44c2.89-2.57,6.08-4.84,8.19-8.19-4.26-5.84-14.5,3.53-8.19,8.19ZM274.8,221.97c-.37-6.13-8.59-9.81-14.33-7.17,4.32,2.84,8.23,6.1,14.33,7.17ZM126.36,221.97c2.13,2.99,2.86,7.38,6.14,9.21,6.13-2.04,19.6-4.74,22.52-13.31-8.48-5.19-24.13-3.36-28.66,4.09ZM412.99,222.99c-1.78-1.02-7.24-3.59-8.19-2.05,2.18.62,6.52,4.31,8.19,2.05Z"/>
  </g>
</svg>