<?xml version="1.0" encoding="UTF-8"?>
<svg id="Layer_2" data-name="Layer 2" xmlns="http://www.w3.org/2000/svg" viewBox="0 0 649.04 641.74">
  <g id="Layer_1-2" data-name="Layer 1">
    <g>
      <path d="M589.91,332.55l-1.1-2.92-2.19-2.92-2.19-4.02-2.56-2.19h-2.56l-.73.37-2.56-.37-1.1-2.56-1.1-5.48-.73-1.46-2.92-1.46-1.83-.73-2.19-4.38.37-2.19.73-4.02,1.1-4.02,1.1-1.46v-2.56l-.37-.73v-2.19l1.1-1.83-.37-5.48v-4.38l-.73-3.65-2.19-1.46-2.92-5.84-1.1-5.84-1.46-5.84v-3.29l1.1-1.83,1.46-4.75,1.83-5.48v-5.48l1.1-9.49.37-8.76-1.1-2.56-1.1-6.21-.37-3.29,1.1-4.02-.73-2.19-1.46-4.75-2.56-4.38-.73-5.84-2.56-6.57-1.46-2.92-.37-.73-.73-1.22v-.24l-1.46-2.19-1.1-1.83-1.46-3.65h.37l3.29-.37,1.83-1.1,1.46-3.65,1.83-.73-.05-.16,3.34-1.67,3.29-4.02,1.46-1.46,1.1-.37h1.1l2.19-.37v-.73h.73l.37-.73h.37l1.1-1.1,1.31-.66,3.8-1.17,1.75-.73h.44l.73-.49,1.15-.48,2.87-.86.05-.22,1.41-.51,2.19-2.56.37-2.56-.37-1.83-.18-.09-.18-.64-.37-1.83,1.1-.73.46-.37h.27l1.1-1.1v-2.19l-.73-1.1-1.83-1.1-3.65-1.46-1.83-1.1-1.83-3.65-3.29-1.46h-2.19v1.83l1.1,1.83-.37,1.46-2.19,1.83v1.83l.73.73.73.21v.16l1.92.64.16.48-.27.95-.83,1.33-.24.24v.15l-.37.58-.91,2.74-1.28,1.28-1.1.73-.15.15-3.5,2.04-4.38,1.83h-2.19l-1.83-1.1-3.16-1.7-.12-.12-2.19-1.22-2.56-1.7-.11-.02-2.08-1.44-1.57-.66.11-.07-2.92-1.1h-2.56l-.97.73h-.12l-.37.37h-5.48l-4.75-.37-.73.37-2.92,3.65-.37,2.19h-1.1l-1.1-1.1-.09.18-2.1-1.64-2.92-1.46-2.92-2.19-.37-4.02-.37-.73-3.65-2.92h-2.19l-2.56.37-2.56-.37-.73-2.56-.73-2.56-2.56-2.56h-1.83l-3.29,1.83h-2.56l-4.75-1.46-8.4-1.83-4.38-2.19-5.48-3.65-2.92-2.19-2.92-1.83.73-4.38-1.1-2.56-1.46-.73h-3.29l-2.92.37-.73-2.19-1.46-1.1h-3.29l-1.1.37h-3.65l-1.83-.37h-4.75l-2.19.37h-4.38l-1.46-1.46.37-1.83-.37-1.1h-12.78l-1.83-.37-3.29-1.46-4.75-1.46h-2.56l-3.65-.73-1.1.12-1.1-.12-1.1.37-9.53.31-2.15-.31h-2.19l-.27.27-.82.09-10.59.73-7.67,1.1-1.83.73-3.29.37-4.75,1.1-6.57,1.1-2.56.73-6.21,2.92-3.5,2.23-.95.16-1.4-.56h-2.19l-1.1.73-3.29.37-3.29.37-1.1-1.1-1.83-.37-1.1,1.1-2.92,1.46-3.29,1.46-4.38-.37-5.84,1.1-1.46,1.1-1.46-.37-2.92-3.65-.89-.24.16-.12-1.28-.18-2.01-.55-.37-1.1,2.56-.73v-2.92l-.37-.73v-2.19l.37-.37,1.83-.73,1.83-1.1v-2.19l-.37-.73-1.83-2.19-1.46-.73v-.73l-1.83-2.19-2.19-1.46-.2-.03-.53-.33-.79.11-.67-.11-1.1.37-.73,1.1-1.46,6.57-.73.37v-2.92l-1.1-1.46-1.83-1.83-1.1.37-1.46,2.19h-2.92l-.73,1.1-.37,4.38-.73,2.56-1.46-.37-1.46-1.1h-2.19l-.37.37v1.83l.73,2.92-4.38-.37-1.83-1.1h-1.83l-.37.37-2.56.73-4.02-1.46h-3.65l-.35-.29-.02-.08-1.83-1.46-2.56-2.56-1.83-.37-1.49,2.09-.75.5-3.59.33-3.65,2.92-4.38,2.56-5.11.73h-3.29l-3.29-1.46-2.92-.73-2.92-2.19-4.02-3.65-4.38-2.19-3.65-2.92-.28-.17-1.18-.93h-.37l-1.83-1.1-1.83-1.83-.37-.37v-.37l-1.1-.73-1.1-2.19-1.1-1.46-3.42-1.37-.59-1.19-1.1-3.29-4.38-2.56-1.83-2.19-1.1-3.29-.37-1.1-.85-1.34-.61-1.22-.67-.79-.43-.67-2.03-2.23-.89-1.05-2.56-3.29-2.19-2.92-.37-2.56,2.19-5.84v-2.19l-.37-.37-3.65-2.19-3.29-.37-1.83-.37-.37-1.1-.37-6.57-.82-.27-.27-.82v-2.19l-.27-.55-.09-.91-.37-.37-.37-.37-2.56-.37-1.1.37-1.46,1.46v2.92l.73.73.33.2.4.53.6.07.5.3h2.92v4.02l-.37,1.46-.37,4.75-2.19.73.37,1.1h.07l.29.73.37,4.75.88,1.17.22.66,1.46,1.46.66.15,1.17.58,2.19,1.1,1.83,2.92,2.19,2.56.73,4.38.37.73.37.37v.37l1.46,1.1h2.19l.37,1.1.73,3.65,1.46,4.38.73.18v.18l2.19.37.73.73,1.46,3.65h.06l.3.73,1.46.73.13.4-.13-.03.37.73,2.92,5.84,2.56,3.29,1.46,3.29,2.19,1.46,1.1,2.56,1.1,1.46.37.18v.18l1.83.73-.37,2.56,1.83,2.56,2.92,5.11,1.83,4.75,1.46,2.56.37,2.56-4.02-.37v-2.19l-1.1-.73-2.56-2.56-1.83-.37-.37.37.28.07-.21,1.04-.07-.02v.37l3.29,2.56v1.1l-2.56,1.46-4.75,3.65-2.56,2.92-.73,4.38h-.73l-2.92,1.1v1.83l1.46,3.29,1.83,2.92,1.1,2.56-.33.1-.4-.1-2.92,1.1-4.38.73-1.46,1.46-2.19,2.92v1.83l-1.83-.37-2.56-1.46-3.29.37-10.95.73-2.92,2.56-1.46-.37h-3.29l-4.02.73h-4.75l-1.46.37-1.46,1.1v2.19l.37.73-.37,2.92.37,1.46.18.18.18.55,2.56,1.83.37,1.83-1.46.37h-12.05l-5.84-1.46-1.46-.73-.73-.37-.73-.37-.32-.27-.05-.09-.11-.05-2.08-1.78-3.65-3.29-3.29-1.83h-2.92l-1.1.37-.03.08-.7.28h-3.29l-.37-.37-2.01-2.19-1.28-1.46-.11-.06-.62-.67-.37-.73-1.83-3.65-.32-.28-.05-.09-.09-.03-1.79-1.57-1.4-1.68-1.46-2.92-1.1-1.46-3.29-.73-.37-1.46-.1-.17-.27-.93-.42-.21-.31-.52-1.1-.37-1-.08-.83-.18v-.1l-2.19-.37h-6.21l-3.65.73-1.83,1.46-1.58-1.58.12-.24-.73-.37-3.65-.73.37-1.83-.04-.11.04-.26-.44-.73-.29-.73-.27-.2-.1-.17-.61-.37-1.22-.91v-.18l-.73-.37-2.92-.37-1.1.37-.06.1-.67.27-1.1,2.19v3.29l.37,1.1,1.1,1.46,3.29,1.46,1.46,1.46-.37,1.1h-4.02l-2.92-1.1-4.02-1.1h-5.11l-2.19,1.1-.73.37-.18.55-.91.91v1.83l.73,1.83,3.65,3.29,4.38,2.19,5.48,2.92v-.02s.73.38.73.38l1.83,1.46,3.65,5.84,4.38,2.19,1.1,1.1.5.1,1.33,1,2.19,1.1,2.92,1.1,3.65,1.83,1.13.94-.04.15h.22l.88.73h2.19l.37-.37.29-.58.07.22v-.37l.37-.73-1.83-1.83,4.02-.37.73,2.56.73.73h1.83l.4-.32.33-.05.49-.61.61-.49.18-.5.18-.23v-.27l1.1-3.01,5.84-1.1h5.84l1.83,1.46.15.07,1.31,1.02,2.92,1.46.7.21,1.13.52.25.39.11.34,1.28,1.83,1.33,2.07.31,1.39v1.64l-1.1,1.46-.37,1.46.73.37,4.75.37,2.61,4.56.31,1.1v2.74l.73,1.1.31,1.56.05.63.18.55.18.91.21.26.16.47,1.1,1.1,3.24,3.53.05.12.73.73,2.56,3.29,2.56,2.56,4.02,2.56,1.83,2.19.08.03.28.33h.51l.58.24v.12l2.92,1.1,2.19,2.92.37.37v.37l1.46,1.1,4.02.73,1.46,2.92v.37l.73,1.1,2.92,1.46.73,1.46-1.46.73-4.38.73-4.75,1.1h-2.56l-2.19-.73-6.21-3.29-2.56-4.02.37-2.56v-2.92l-1.83-2.92-2.63-2.92-.29-.37-.09-.05-.28-.31-2.04-1.17-1.61-1.02-1.46-.73-2.56-1.46-6.57-3.65-2.56-.64v-.09l-1.83-.37-.73-.73-.37-.09-.37-.27-2.92-.55-.73-.18-2.56-.73-1.65-3.07-2.12-4.45-.37-.88-1.34-4.02,2.19,1.1h4.38l1.83-1.1,2.19-3.29v-3.29l-.73-1.46-2.56-2.19-3.65-.37-2.56,1.1-2.19,3.65-.37-3.29-.37-.73h-1.46v4.75l.37,1.46,1.83,7.3,1.83,5.48.24,1.7-.16.8-1.54-.31-.73-.73-3.65-5.11-3.65-3.65-.37-.37h-.37l-.73-.37-.09.37h-.27l.12.63-.12.46.37,1.17v.29l.22.66.15.8.64,1.55.46,1.37h.11l1.35,3.29v3.65h-.73l-6.57,2.56-7.3,1.1-1.46.73-1.83,1.83v2.56l1.83,3.65,2.56,2.19,4.02,2.56,4.38,1.83.37,1.46-3.29-.73h-3.65l-.73.37h-3.65l-6.57-1.46-3.29-1.8v-.03s-.72-.37-.72-.37l-1.83-2.92-.16-.2-.57-.89-1.31-1.46-.88-1.1-.37-.28-.73-.81-1.37-.82-.82-.64-.55-.18-.91-.55-.42.1-.31-.1-.73.37v1.1l.27.27.09.46,3.65,3.29,1.46,1.83,1.75,2.34.58,1.02.33.98-4.49-.69h-4.02l-5.48.37h-5.84l-1.83-.73-2.19-1.83-.35-.27-.38-.46-2.26-1.59-.3-.23-4.6-3.29-3.8-2.92-.1-.05-1.36-1.04-3.29-4.38-3.65-3.65-.73-3.29h-.17l-.2-.73-.73-.73-.83-.31-.63-.42-2.56-1.46-1.83-4.38-2.19-1.83-1.83-2.92-2.92-2.92-2.92-2.56-1.46-.37-.37,1.83,1.46,1.1,1.46,1.83,2.56,2.56,1.46,2.56-.73,3.65v5.84l2.19,2.56,1,.44.1.29,1.1.37h.24s.85.37.85.37l4.02.37.73.37,2.56,3.29.56.52.17.21.83.73,3.91,3.65,1.83,1.83h.26l.83.73,4.38,4.38,4.02,2.56.39.16.34.21,2.56,2.19.37.63v.1l2.19,3.65-.37,2.19-2.19,1.83-1.46,2.92v3.29l1.83,5.84.37,2.19-3.65,1.83-1.46,1.83v2.92l.73,2.56h-.73l-1.46,1.1-3.65,1.46-2.92-1.46-.73-1.83,2.92-1.83,1.46-2.19v-2.56l-.37-.73-2.92-1.46h-3.29l-.73.37-2.19,2.56-1.55,1.55-1.37.27-5.48-1.46h-3.65l-.73.37-2.19,1.83-1.1,3.29.37,2.92,1.46,2.19,2.19,1.46,5.84,1.1h4.38l1.46-.37h4.75l1.1.37,6.94,1.1,1.1.73,1.83,2.92,2.19,2.92,5.48,4.75.37,1.83-2.19,3.29-.58,1.9-.15-.07-.2,1.19-.37,1.2-1.44,1.44-.37.26-2.37,1.02-2.92,1.1-.13.26-.23.1v.37l-.37.73.37.07v.29l.85-.12.61.12.76-.32.33-.05,1.83-.85,1.46-.61-.09-.03.72-.33.83-.37,1.83-.37,1.1.73,5.11,2.19,2.92.37,2.56-1.1,2.56.37,1.1,1.1v2.56l-.73,1.83h-.73l-.73,2.19.73.91v.18l.2.07.53.66h2.19l.37-.37v-2.56l4.38-2.19,3.29-1.1.37,3.29.73,1.46,2.19,1.83,1.1.16v.21h1.46v2.92l-.51.85-2.04,1.7-3.65.73-1.1.73-.73,1.83v2.92l1.1,1.1h2.92l1.46-.37,4.75-2.92,5.84-4.02,1.46-3.29,1.46-2.56,1.46-.73h2.92l3.29,5.84.91,2.37.91,2.74v6.94l.73,3.29.37,5.84,1.1,1.83.37,1.83h-1.46l-5.84,1.83-8.76,2.92-6.21,1.1-5.48,1.46-6.21,2.92-4.02.73-2.19.73-2.56,2.19-4.02.73-1.46,1.1.37,1.46.62,1.54-.62.29-3.65,1.46-4.38,2.19-2.92,1.1-.37.37v.61l-.2.54-.16-.05-.66,1.66-.4.27-1.17.35-2.51.28-2.56-1.1h-2.56l-1.46.73v1.83l.73.37,2.65-.33.45.15.64.64.27,1.37-1.46,1.46.05.24-.41.49.37,1.46v2.19l-.37.73-2.92,2.56-.37,2.56-1.1,1.46-2.74,2.01-1.28.91-.06.07-1.4,1.03-3.65,3.65-2.19,1.46v1.46h2.19l1.1-.73,2.6-2.27,3.97-2.84,4.02-2.56,3.65-1.1h6.21l1.46-.37,8.03-1.83,1.46-1.1h6.21l2.19-1.1,8.4-2.92,1.83-.37.37,5.11.37,2.56-3.65,2.92-7.3,4.02-1.83,2.56v4.02l1.1,1.1,2.56.37,3.65-1.83,2.92-2.56,2.56-2.92,2.92-2.92,2.92-2.19,3.29-1.1,4.75-.73,1.67-.39,1.98-.34.57-.24.53-.12.18-.18,1.28-.55,2.56-2.19,1.83-3.65v-3.29l-.73-1.46-.52-.42-.21-.31-.39-.17-.7-.56-2.56-1.1h-5.84l-4.38.37.37-1.1,2.56-2.92,3.29-2.92,4.02-3.29,6.57-2.19,5.48-2.19,5.48-2.92,3.29-1.83h10.95l4.38-1.1,1.1-.73.37-7.67,1.46-2.56,1.1-3.65.73-.37h2.19l.73,1.1-.73,2.92.37,2.19v9.49l-5.48.37-1.1.73-1.46,2.19-.37,2.19.73,1.46.37,2.92h-.73l-2.56,2.56-.37,6.94-.37,1.83v4.02l1.1,2.19-.37,1.83-2.19,1.83-.37,5.48-1.46,3.65,1.46,1.46,1.1,2.56,1.1,1.83v2.56l-1.1,1.1v6.57l-1.39,2.79-2.99,2.69-1.46,2.19-.37,2.19h1.46l2.56-3.29,2.56-2.56,2.56-2.56,1.83-.37,1.46,2.56-.37,2.19-2.19,3.65-1.83,4.75-.73,7.67-.73,1.1-4.75,2.92-4.02,1.83-5.48,2.92-1.46,1.83.37,1.1,1.83.73h5.48l9.49-1.46,1.1-.73,1.46-2.19v-5.48l1.1-2.19,1.1-.37,13.14-3.29,4.75-1.1,3.29-1.1h2.92l2.19,1.46h2.56v.73l-1.1,1.46-3.29,4.02-3.65,3.29-1.83,1.83v2.92l.37,1.1.73.37h2.56l5.48-1.83,3.31-.3,1.07,3.22v2.56l-1.1,1.1-.73,3.65-.73,2.19,1.83.73.73,2.19.37,2.19-2.19,1.1-4.75,1.83-4.38,2.19-.22.44-.15-.07-1.46,3.29-3.29,1.46v.04s-.73.33-.73.33l-6.94,4.02-.37,1.46,1.1.73,2.56-.37,2.77-1.54,2.3-.84,2.97-.91,1.46-.37.97-.61,1.22-.49.73-.73,2.43-2.13,1.58-.79,1.1-.73,2.56-1.46,2.92-1.46,1.88-.63.56.14.85.85.37.73.37,2.19-2.56,2.19-3.65,2.92-5.84,4.38-2.92,1.83-.37,1.83-.73,2.19-.73.73-3.29,3.29-3.65,3.29-.37,1.46h1.46l1.1-.73,4.38-3.29.97-.85,1.22-.97.15-.22.58-.51.37-.91.37-.55-.07-.2.8-1.99,3.65-1.1,3.65-2.19,2.92-2.92,3.29-2.19h2.19l.37.73,2.56,1.83,2.92-.37h2.92l2.56,1.46h2.56l1.46-.37,3.29-1.46,2.56-1.1-.37,1.46.73,2.92,1.56,2.61.26.68.18.06.18.3.37,2.56,1.1.73,1.83,1.83.37,4.75.37.73,1.83,1.46,5.11.37-.37,1.46-.73.73-2.56,5.11-2.19.73-3.29,1.46-5.11,2.92-3.29,3.29-3.65,3.29-5.11,5.48-4.02,4.75-3.65,5.84-1.83,4.38-3.29,6.21-1.1,3.65-2.19,3.65-2.56,4.02-.23.6-.13.13-.91,2.56-1.28,3.29-2.19,3.65-3.29,1.1v2.19l.37.73-.37,1.83-.37,2.56,1.1,1.46,2.56.37,1.83-1.83.37-4.75,1.83-4.38,2.56-5.11,1.41-2.19,2.61-3.65.73-1.46h.73v-.73h.73l1.83-1.83.32-.68.04-.05.37-.81,2.56-5.39.9-1.49,2.39-1.79,2.56-2.19,4.02-3.29,4.02-4.02,3.29-4.02,4.75-4.38,1.83-3.29,1.83-1.1,5.48-1.83,2.56-.37.37,2.19.73.73,2.19,3.29.14.05.22.32,4.02,2.19,2.56.37,6.21-2.19,2.92-1.46.04-.18.33-.18.37-3.29,1.1-1.46.73-1.46,2.92-.37v2.92l-2.19,3.29-2.92,5.48-2.56,3.65v2.92l-2.19,1.46-3.29,2.92-.37,3.29.73,2.92,1.1,1.46h2.56l2.19-2.56,3.65-4.75,2.92-4.75,4.38-6.21,2.56-2.56,2.92-1.1,4.75.37.37-.37,2.56-.37.37.37-.37,1.46-1.1,1.83v2.19l1.46,1.46,1.83.37,1.83-1.46,2.92-4.02,1.83.37,2.56,3.29v2.31l-.17.46-.8,1-1.22.97-1.3,1.62-1.62,1.3-1.1,1.1v2.92l1.1,1.1,2.19-.73,3.65-1.83,1.46-.73.09-.2.28-.17,1.83-4.38,2.19-4.38.91-1.52,2.01-.67,1.04-.42,1.15-.31.42-.31,1.04-.42,2.56-.37,5.11,1.83,1.83.37.49-1.46h3.89l.73.37.73,1.46.37,7.3.37.37v.37l1.1.73,2.19-.37,5.11-.37.37-1.46-1.46-2.19.37-2.19,1.46-.73,2.92-.37,3.65,3.65,1.83,4.75,1.83,3.29.37.73.24.37,1.22,2.19.44.29.29.44h.37l1.1.73,1.46-.37.73-1.46h2.19l3.29,2.56,1.46,1.83,1.46,3.29,1.46,2.92,1.46.37,1.1-.73,5.48-1.1,1.46-.73,1.83-1.46,1.83-4.75h1.83l.37.37,1.1,2.92,1.83,1.46,4.02.37,1.1-.73.37-.73,1.46-1.46,1.1-.73,2.92-2.56,1.46-1.83,1.83-1.46,2.56-2.56,4.02-2.56,3.29-.37,1.31-.44.51.07.15-.29,1.31-.44h3.65l2.19-1.46,5.11-1.83,2.56-2.19,3.29-.73,1.46-1.1,3.65-1.1,3.65-2.56,5.11-.73,2.19-2.19,4.02-.37.73-.37,3.29-5.11,1.46-.37,1.83,3.29.88,1.17.22.66,1.1,1.1.37.37h.18l1.64,1.1,2.19.37,1.83-.73,1.46,2.56v2.92l3.29,4.02,2.56,3.29.73,3.29.73,1.7v.49l.31.23.06.13,2.19,4.38.37,4.02.37.37,1.46,1.46,1.19.46.27.27.62.07,2.33.9.52.31,1,1,1.01,5.39.37,12.78,1.1,1.83h1.83l1.1-1.1,1.1-6.57,1.1-.73.37-1.83-1.46-1.1v-7.67l1.46-1.1,1.1-3.29,1.1.37,2.13,2.43.06.12.07.03.29.34,4.38,2.19,1.46,2.19,1.61.88.22.22.25.04,1.94,1.06,1.46,1.46,4.91,4.6,2.1,2.34,1.02,1.28.37.55,1.46,2.19.08.02,1.38,2.17,1.83,1.46v3.29l.73,1.22v.24l.37.37,5.48,9.13-.37,2.19v2.56l1.46,5.48,2.19,1.83,1.1,4.02,1.46,1.83,2.56.73v1.83l-1.1,1.83v2.19l.37.73,1.83.73-.73,2.92,2.56,6.21,2.92,5.11,6.21,11.68,2.92,4.02,2.92,5.84,2.19,3.65,2.19.37,1.83-.73,1.1-1.1-.73-3.29-4.38-10.95-1.83-5.48-4.02-5.84v-2.92l.37-2.19-2.92-1.46-1.83-1.83-1.1-2.56-.37-4.75-1.46-3.29v-4.38l-2.56-5.11-1.46-1.83-1.1-2.56-2.92-1.46-2.19-6.21-1.46-6.21.37-1.46,2.19-1.1,1.1-1.83.37-2.56-1.46-1.83-2.19-.37-1.1.73-1.1,2.92-1.46.37-.73-3.65-4.38-8.76-1.83-4.38-.37-3.65,1.1.37,1.1,1.1,2.19,2.56-.37,2.92.73.37,1.83-.73.73-2.19h.73l1.46-2.92h3.29l.73.29v.07l1.1.37v.73l.4.27.33.83,2.92,1.46-.37,4.02.37.37v.37l.73.37.37,1.46-1.83,1.83.73,2.19,1.83,1.46h2.19l.73-1.1h1.46l1.83,1.46,2.56,3.29,1.1,3.65,1.46,1.46,1.1.18v.18h1.1l1.1-.73.04-.18.69-.55,1.1-4.38-2.56-5.11-4.38-6.21-3.29-4.38v-2.92l-.37-.37-.35-.61-.02-.12-4.02-6.94-3.65-3.29-2.56-5.11-1.27-1.75-.19-.44-.49-.49-.97-1.34-3.29-2.92-2.19-2.19h-.31l-.42-.37-3.29-.37v-2.19l-.73-3.29-1.1-2.92-1.1-3.29h4.75l2.92-.73,2.19-1.1,1.1-1.83.88.29,1.31,2.63,2.19,1.83,3.65,1.1,1.1,4.02,2.19,2.92.73,3.29,1.46,3.65,2.92,4.02,3.29,3.65,2.19,3.29,2.56,4.02.37,3.29-1.46,1.1-.02.09-.35.28.16.65-.16.81.73.73,2.19,2.92,3.65,5.48,3.29,4.02h.73l.73,1.46,1.46.73v.73h.73v.73h.73v.73h.73v.73h.73v.73l2.19,2.56,4.75,6.21,4.38,4.75.37.61v.12l2.92,4.75,1.46.73v.73l1.83,2.74,2.19,3.83.37.37,1.1,1.83,2.56,2.56,1.83.73,1.46-1.1v-2.19l-.37-.73-3.65-5.11-3.29-5.11-.18-.09-.18-.27-1.46-3.29-1.83-2.19-.09-.05-.27-.32-1.1-.37-1.1-.55v-.55l-6.57-8.76-4.38-6.57-5.84-7.3-2.92-4.38v-4.38l-1.83-4.02-3.29-9.86-1.83-4.02-.37-2.56h.73v1.1l1.83.37,1.1-.73.37-1.46-1.1-.37v-1.83l-.73-1.46-.23-.14-.14-.23-.55-.18-.91-.55-.33.13-.4-.13-.83.63-.26.1h-.85l-.31-.23-.37-1.34.06-.25-.42-1.04-.31-1.15-1.46-2.92-.73-.73-3.65-3.65-.49-1.7-.24-2.68-2.56-2.92-1.1-3.29.37-7.3,1.46-.37,2.56,1.46.34.24.03.13.2.03,3.09,2.16,1.83,1.83-.37.73v2.19l1.1,1.1.51.08.22.28h1.46l1.1-.73,1.46-.37,5.11,3.29,1.46,1.83,2.19,1.83,4.38,3.29,1.46.73v.73h.73l.73,1.46,2.19,2.92,1.83,2.19.11.06.26.3,1,.46.46.27,2.92,1.46,1.83,5.48,3.29,7.67,2.92,5.48,4.75,3.65,1.83.73,1.46-1.46v-3.29l-2.56-5.11-4.02-5.84-2.92-2.92-1.46-3.65-1.46-1.83-2.92-4.02-3.29-3.29-1.1-1.1-2.41-1.97-2.34-2.04-.64-.37-2.28-1.83-1.46-2.92-.37-.73-.37-.37-3.65-5.48v-2.19h1.83l2.92.73,3.65,1.83,1.46,1.83,2.92,1.83h3.29l3.29-1.83,1.46-2.19.37-4.38,3.65.73,1.83,1.1,3.29,3.29,3.65,3.29,2.19,1.1,1.83.21v.15l4.38.37,1.83,1.83.04-.08.74.91.31.63.67.57.43.52.55.31.91.78h.46l.64.37h3.65l.37-1.46-2.92-2.56-2.92-2.92-1.83-1.1-4.02-.37-2.09-1.79-1.68-2.1-2.43-3.41-.16-.08-2.03-2.84-3.29-3.29-.37-.37-1.46-1.1-1.83-1.46-.26-.1-.83-.63-4.72-2.95-.39-.34-.18-.02-.55-.34-3.29-1.83-.61-.12-1.95-.97h-5.84l-1.83.73-2.19,1.83-3.65,1.83-2.92,1.83-1.83,1.1v-.73l-1.1-2.92-1.83-1.1-.73-.32-.73-.41-2.92-2.56-.37-2.19,1.1-1.1,1.46-1.83-.37-2.19v-2.92l2.19-2.56.37-1.83-.73-1.46-.73-2.43v-.49l-.37-.73-.37-2.19,1.83-.37h2.56l1.1-.37v-3.29l.73-.73,3.65-2.19,2.92-.37,1.1-.73,1.1-3.65,3.65-1.83,2.92-2.19,1.46-3.65,1.1-3.65h.73l2.19-1.83v-2.56l.73-1.1v-2.92l.55-.91,1.28-1.28.03-.1.33-.27h7.3l.73.37,1.83,2.56.37,2.56,2.56-.37,2.56-2.92,4.38-2.19h2.19l.73.73,2.19.37.37-2.19,1.46-3.65,1.1-1.1,1.83.37,2.19,1.83,3.65,2.19,1.1,3.29,2.92.37.37-.73-.73-3.65,1.1-1.1,3.29-.73.37-.37v-4.02l-.73-3.65-.73-1.46-2.56-3.65-3.29-5.11-2.19-4.02-2.92-5.48-1.83-1.46-.3-.06-.43-.3.37-3.29h.73v-.73h.73l1.46-1.46.37-3.29.37-4.02-1.46-2.56-2.19-1.1-1.1-2.19-1.1-3.29h1.1l4.75,1.46,1.46,2.19,5.48-.37,1.46-1.83.37-3.29,1.83-.73,4.02-.37,1.1-.37,1.1-1.1.73-1.46,4.38-.73.73-1.46-2.19-2.56-2.92-2.56ZM59.5,334.74l.07.07.29,1.75-.73,1.1h-2.56v-1.1l-.11-.32,1.2-1.5h1.83ZM82.5,266.48h-2.19l-.37-.37v-2.56l.37-.37h1.46l1.1,1.46-.37,1.83ZM38.82,248.96h.61l2.56.37.37,1.46-.73.73-3.29-.37-.73-1.46,1.22-.73ZM153.68,394.24l-.37,2.19-2.92,1.1-5.84,2.56-2.92.37-.37-.73-1.1-4.38-1.83-.37-.73-1.46.37-3.29,1.83-1.46h2.92l.73-2.56.73-.73,6.94-1.1h2.19l1.1,1.46v2.19l-1.46,2.92-.12.61-.24.12v.73l.06.06-.06.3,1.1,1.46ZM95.01,292.29l-1.56-2.82v-1.83l.37-.37,2.56.37,1.37-.27.09.27h1.46l-.37,1.83-1.83,2.92-1.83.37v-.73l-.26.26ZM143.46,380.74l1.39-.93.8.2v1.83l-1.1,1.1-1.46.37.37-2.56ZM117.54,270.13l1.46-1.46,2.56-1.46,1.1.37.73,4.02.52.42.21.31.25.06.84.67h4.02l.73-1.83h1.46l2.19,1.46.37,1.83-.73.73-2.92.37.37,1.1,2.56.37.73,1.1v2.19l-1.83,1.1-5.48.37-1.1.37-2.19-.37-1.46-2.19-3.65-2.19-1.1-1.83.37-5.48ZM301.52,103.67l-1.83-.37-.55-.37h.55l-2.19-1.46.37-1.46,2.09.3,1.19.8.37,2.56Z"/>
      <polygon points="56.58 406.29 59.5 402.28 59.5 400.45 56.58 398.26 54.76 393.88 50.01 389.86 47.46 389.5 41.61 390.59 39.79 392.78 39.06 394.97 38.33 394.97 36.14 396.07 36.87 401.18 33.95 403.37 33.95 405.2 34.31 405.56 36.14 406.66 37.23 409.21 37.36 409.09 37.96 410.31 44.9 413.59 48.19 413.23 52.2 411.77 54.03 410.31 56.58 406.29"/>
      <polygon points="221.21 534.05 219.39 532.59 217.56 526.39 216.47 524.2 214.64 522.74 211.72 522.74 207.34 523.83 206.25 524.56 204.79 526.75 202.23 527.85 200.77 529.31 200.77 531.5 200.77 532.23 199.68 534.78 197.49 536.25 197.12 538.07 198.58 539.53 199.56 540.99 200.41 543.55 201.14 544.28 206.61 547.2 209.9 547.2 213.18 546.47 215.01 545.37 216.83 543.18 219.39 538.8 221.58 535.88 221.21 534.05"/>
      <polygon points="473.46 52.93 471.27 54.39 464.33 55.12 463.97 56.95 465.79 57.68 465.43 59.5 463.6 60.96 462.14 62.79 461.41 66.44 459.95 68.26 459.95 71.18 461.41 73.01 462.51 77.39 459.95 77.02 459.22 77.75 459.59 79.94 461.41 82.13 464.33 81.77 465.43 82.86 467.25 85.05 469.08 85.05 471.27 85.05 472 86.15 472.42 86.58 472.36 86.88 473.09 87.24 475.65 87.24 477.47 85.78 480.03 85.42 482.95 87.24 485.14 87.24 486.96 86.15 488.42 83.96 490.98 80.31 491.35 77.75 490.25 75.2 490.25 73.01 492.81 69.72 492.81 66.8 491.35 64.61 490.62 62.42 488.79 60.6 486.23 57.68 485.26 57.43 485.5 57.31 483.31 56.95 480.76 54.76 478.93 53.84 476.74 52.57 476.38 52.57 474.55 52.57 473.46 52.93"/>
      <polygon points="105.86 29.2 105.86 33.22 105.5 34.31 105.5 37.23 107.32 41.25 109.88 44.17 113.53 45.63 114.08 45.72 114.62 46 117.91 46.36 120.1 48.19 123.38 48.92 127.4 51.11 127.44 50.94 127.76 51.11 128.03 50.58 128.13 50.74 128.86 48.92 131.78 48.19 132.14 47.82 132.51 47.82 132.63 47.33 132.87 47.09 132.84 46.49 132.87 46.36 132.83 46.34 132.51 40.52 131.78 39.42 130.68 37.23 131.05 34.68 131.05 32.12 129.95 29.39 128.86 25.55 128.13 23.73 125.21 22.27 124.48 19.35 123.38 16.79 121.19 15.33 120.1 13.51 117.91 13.14 116.08 13.87 113.53 14.24 110.97 13.51 108.42 13.14 106.59 14.6 104.4 18.98 104.4 21.9 105.13 24.46 105.86 29.2"/>
      <polygon points="586.62 547.2 584.8 545.01 575.3 540.26 572.38 539.9 569.83 540.99 568 543.18 568 545.74 568.73 547.2 570.19 548.66 570.56 549.02 571.65 549.36 571.65 549.39 576.69 551.07 577.44 551.63 578.59 553.16 580.05 555.59 582.61 558.51 584.8 559.61 587.72 559.24 589.91 556.69 589.91 553.04 589.05 551.76 586.62 547.2"/>
      <polygon points="261.37 86.88 264.29 88.7 269.77 88.7 270.86 88.34 272.32 87.24 272.41 87.1 272.69 86.88 273.23 85.78 274.15 84.32 274.07 84.11 274.51 83.23 274.51 78.85 273.05 75.56 271.59 73.74 267.94 71.55 265.02 71.55 263.92 72.28 260.64 73.74 259.18 79.58 258.81 82.13 259.54 84.32 261.37 86.88"/>
      <polygon points="446.08 33.58 449 35.04 450.46 37.96 451.56 38.33 455.57 37.6 456.67 36.87 459.22 36.87 459.95 36.14 459.59 33.95 459.59 30.66 460.32 27.74 460.68 25.19 460.32 24.82 457.76 24.46 455.57 22.63 453.38 22.27 449 23 448.64 23.73 448.64 27.01 447.18 27.38 445.71 30.3 445.35 32.85 446.08 33.58"/>
      <polygon points="343.14 38.69 343.5 40.15 346.42 41.25 348.98 41.61 350.44 40.52 353.72 40.52 354.82 39.79 356.28 35.04 356.28 30.66 355.18 29.2 353.36 27.38 351.17 26.65 347.15 26.28 343.5 28.47 342.04 31.76 342.04 35.77 342.77 36.87 343.14 38.69"/>
      <polygon points="129.59 100.75 126.67 102.58 125.21 104.4 125.21 107.32 125.94 110.24 128.13 112.8 133.6 114.62 136.16 114.62 136.89 114.26 138.72 111.7 139.81 109.51 139.81 106.23 139.08 103.67 137.99 102.21 135.43 101.12 130.68 100.39 129.59 100.75"/>
      <polygon points="648.68 103.31 645.03 101.48 640.28 101.48 637.73 102.21 636.63 103.31 635.17 108.42 635.17 114.26 635.9 115.35 637.36 116.08 639.55 116.45 643.2 114.62 645.76 111.7 647.58 110.24 649.04 108.05 649.04 107.69 649.04 103.67 648.68 103.31"/>
      <polygon points="46.36 104.4 50.74 105.13 53.3 104.77 54.76 103.67 56.58 100.75 56.58 97.83 54.03 94.55 53.66 91.26 51.11 90.17 48.55 89.8 47.82 90.17 44.17 93.82 43.07 96.01 43.07 99.66 44.53 102.58 46.36 104.4"/>
      <path d="M565.81,94.55h1.83l2.56-.73,1.46-1.1,1.46-5.84,1.1-3.65h.73l2.56-1.46,1.46-1.83-.37-1.46-1.46-.37-1.22.73h-.24l-.37.37h-5.48l-1.46.73-4.02,1.1-1.46,2.92-.37,2.92,1.46,5.48,1.83,2.19ZM566.54,86.51l-1.1.37.37-1.83h.37l.37,1.46Z"/>
      <polygon points="69.72 162.81 66.8 160.98 60.96 157.7 58.77 156.97 57.31 157.7 54.03 160.62 52.93 162.44 53.66 165.73 55.85 167.55 61.69 168.65 64.25 168.65 66.44 167.55 69.72 166.82 70.82 166.09 71.55 163.9 69.72 162.81"/>
      <polygon points="340.22 550.85 336.93 550.12 334.74 550.85 332.92 552.31 331.09 557.42 331.09 560.34 331.46 561.07 333.28 562.53 337.66 563.62 340.95 563.26 342.77 561.8 343.5 559.97 343.5 556.69 342.41 553.4 340.22 550.85"/>
      <polygon points="392.05 30.3 393.88 29.93 396.07 30.3 397.89 29.93 400.81 28.11 401.18 26.65 401.55 23 401.18 21.17 397.53 17.89 395.7 17.89 392.42 18.62 391.32 19.35 390.23 23 390.23 26.28 389.86 27.01 390.23 29.2 392.05 30.3"/>
      <polygon points="416.15 68.63 418.7 69.72 421.26 69.72 421.99 68.99 425.64 67.9 426.37 66.44 426 60.96 425.64 59.87 423.08 57.68 421.26 57.68 419.43 58.77 417.97 58.41 416.15 58.77 415.05 60.6 414.32 62.79 416.15 68.63"/>
      <polygon points="454.11 16.06 455.57 14.97 457.76 13.87 459.22 12.05 461.41 9.13 464.33 3.29 463.97 1.46 461.05 1.1 460.32 .37 458.49 0 457.03 1.1 457.03 3.29 457.4 3.65 459.22 4.75 459.22 6.21 457.76 9.13 456.67 9.13 456.3 6.57 455.57 5.84 451.92 5.84 450.1 8.03 450.1 12.05 452.29 16.06 454.11 16.06"/>
      <polygon points="239.47 73.01 236.91 75.93 237.28 78.12 238.01 81.4 236.91 82.5 236.18 85.05 237.28 86.15 238.37 85.78 238.74 83.23 240.56 83.59 243.85 83.59 244.94 83.23 246.77 82.13 247.86 78.48 247.5 75.2 245.67 73.74 243.85 71.55 242.02 71.55 239.47 73.01"/>
      <polygon points="605.97 261.73 605.97 257.35 603.05 254.43 599.4 252.61 595.75 252.61 593.56 254.07 593.56 256.26 594.65 258.45 596.11 261.73 597.94 262.83 602.32 263.56 604.87 263.19 605.97 261.73"/>
      <polygon points="601.95 213.18 600.97 213.97 600.86 213.91 600.13 214.64 599.03 217.56 599.4 220.12 601.95 222.31 605.24 222.67 607.43 221.94 609.25 219.75 608.89 216.47 605.97 213.18 603.05 212.82 601.95 213.18"/>
      <polygon points="29.57 400.08 27.38 396.8 24.82 392.78 24.46 392.42 23.73 391.32 20.81 390.23 18.98 387.67 16.79 386.21 14.24 385.85 12.78 386.94 12.78 388.77 13.51 390.23 16.43 392.05 19.71 392.78 19.71 393.51 20.81 395.7 22.27 397.16 24.82 396.8 26.65 398.26 28.47 401.91 29.93 402.28 29.93 400.81 29.6 400.3 29.57 400.08"/>
      <polygon points="307.73 12.41 309.19 12.78 310.65 11.68 314.67 8.03 315.76 5.48 315.4 3.29 315.03 2.92 314.54 2.43 314.67 2.19 313.94 1.83 311.38 1.1 310.28 1.46 310.22 1.56 309.55 1.83 307 4.75 306.63 7.3 307.36 8.4 307.73 12.41"/>
      <polygon points="41.25 301.52 41.61 302.25 43.8 303.71 46.36 303.71 48.19 302.98 50.01 300.79 50.01 297.51 49.65 296.78 48.96 296.09 48.92 295.68 48.43 295.56 47.82 294.95 45.27 294.59 44.17 294.95 42.71 296.05 41.25 298.24 41.25 301.52"/>
      <polygon points="146.02 71.91 146.44 72.4 146.75 73.01 147.72 73.86 148.57 74.83 149.05 75.03 149.67 75.56 149.99 75.4 150.4 75.56 153.32 74.1 153.68 71.55 151.49 68.99 150.21 68.19 150.03 67.9 148.57 67.17 146.38 67.17 145.29 67.9 144.92 69.36 144.97 69.46 144.92 69.72 146.02 71.91"/>
      <polygon points="463.75 15.7 463.6 15.7 460.68 18.25 459.95 21.9 460.32 24.09 461.41 24.09 463.24 22.63 465.79 22.27 467.25 23.73 470.17 24.82 473.09 24.82 474.55 23.73 475.65 21.17 476.01 17.52 474.92 15.33 472 13.51 468.71 13.14 469.44 10.59 469.08 8.4 467.62 7.67 467.25 8.03 466.16 9.86 466.52 13.87 465.06 14.6 463.75 15.7"/>
      <polygon points="46.73 80.31 49.28 80.31 50.38 79.21 50.74 77.39 49.65 74.83 47.82 72.64 45.63 72.28 43.8 73.74 43.8 77.39 45.27 79.58 46.73 80.31"/>
      <polygon points="636.27 254.07 632.98 254.07 631.52 255.16 631.16 257.35 631.89 258.81 634.44 260.27 638.09 260.27 639.19 258.81 638.46 255.53 636.27 254.07"/>
      <polygon points="119.37 481.49 116.81 484.04 116.45 485.87 119.37 488.79 121.19 488.79 123.75 486.6 123.75 483.68 121.56 481.85 119.37 481.49"/>
      <polygon points="626.41 110.24 624.22 112.8 624.22 114.62 625.68 116.45 627.14 119.37 628.6 119.37 629.33 118.64 629.7 112.07 628.24 110.24 626.41 110.24"/>
      <polygon points="313.21 574.57 312.11 573.48 309.92 573.11 309.19 573.48 308.82 573.84 308.46 573.84 307.36 575.3 307.36 577.49 309.19 579.32 312.11 579.32 312.84 578.95 313.02 578.41 313.57 577.86 313.21 574.57"/>
      <polygon points="281.81 574.57 279.62 574.57 277.8 576.4 277.8 579.32 278.89 580.78 282.18 580.78 282.54 580.42 283.64 578.59 283.27 576.03 281.81 574.57"/>
      <polygon points="582.61 247.13 582.61 249.32 582.97 249.69 585.89 251.15 589.18 251.15 591.37 249.69 591 248.23 586.99 246.77 583.7 246.4 582.61 247.13"/>
      <polygon points="561.07 522.74 559.61 524.56 559.97 527.48 561.43 528.58 563.99 528.58 565.81 526.75 565.81 524.56 563.99 522.74 561.07 522.74"/>
      <polygon points="388.4 41.61 390.59 43.8 392.42 43.8 393.88 42.34 394.24 40.15 393.51 38.33 392.42 37.23 390.59 36.87 389.86 37.23 388.4 39.42 388.4 41.61"/>
      <polygon points="270.5 530.77 268.31 529.31 264.65 528.58 262.83 528.94 259.91 530.77 257.35 533.69 257.35 537.71 257.72 538.44 257.79 538.44 258.45 539.53 262.1 540.26 266.11 541.36 268.67 541.36 270.86 539.9 272.32 537.71 272.32 533.32 271.96 532.59 270.5 530.77"/>
      <polygon points="40.15 168.19 40.15 168.28 42.34 169.01 44.9 169.01 46 168.65 47.09 167.55 47.2 166.88 47.46 166.46 47.36 165.91 47.46 165.36 47.18 164.82 47.09 164.27 46.78 164.01 46.73 163.9 44.32 161.93 41.98 159.89 39.42 159.52 37.23 160.25 35.41 162.08 35.41 165 36.5 166.82 40.15 168.19"/>
      <polygon points="192.38 524.56 190.55 523.1 188.36 523.1 186.54 524.93 186.54 527.12 186.9 527.85 188.73 528.94 191.28 528.94 192.74 527.12 192.38 524.56"/>
      <polygon points="106.23 489.52 104.4 489.15 104.04 489.52 102.94 492.44 101.48 493.17 101.48 494.63 102.94 496.09 104.4 496.82 105.5 495 107.69 493.9 107.32 490.62 106.23 489.52"/>
      <polygon points="233.26 50.01 233.63 52.93 232.17 55.49 232.17 58.04 231.8 62.06 233.99 64.61 234.7 64.93 234.72 64.98 236.18 65.71 236.34 65.66 237.28 66.07 238.74 65.71 241.66 62.79 242.02 62.42 242.39 61.57 242.75 60.96 242.79 60.63 243.12 59.87 243.12 57.68 243.12 55.49 242.02 53.66 241.54 53.27 241.29 52.93 240.69 52.6 240.2 52.2 239.85 52.13 238.01 51.11 235.82 50.38 235.45 48.55 235.82 44.9 235.45 43.07 234.72 42.34 232.53 42.34 231.44 43.44 231.44 46 232.17 47.46 233.26 50.01"/>
      <polygon points="337.3 603.78 334.74 603.05 332.92 604.51 332.55 606.7 333.71 609.79 333.65 609.98 335.47 614.36 335.72 614.49 336.2 615.46 338.76 615.09 340.22 612.17 340.22 609.25 338.76 605.6 337.3 603.78"/>
      <polygon points="312.84 97.47 316.13 94.91 317.95 92.72 317.59 91.63 316.13 91.26 314.3 92.72 308.46 96.74 308.09 98.56 309.55 98.93 312.84 97.47"/>
      <polygon points="418.34 530.77 417.24 531.13 416.51 531.5 416.51 531.86 416.15 532.23 416.15 534.78 417.97 536.98 420.16 536.98 421.26 535.15 421.62 531.86 420.53 530.77 418.34 530.77"/>
      <polygon points="584.8 92.72 586.62 92.36 588.08 91.26 588.45 89.07 586.99 87.24 584.43 86.88 583.34 87.61 582.24 89.44 582.61 91.63 584.8 92.72"/>
      <polygon points="152.59 25.92 154.78 25.92 156.24 24.46 156.6 22.27 154.78 20.08 152.22 20.08 150.76 21.9 151.13 24.46 152.59 25.92"/>
      <polygon points="287.29 76.66 288.02 71.91 288.75 71.18 288.8 70.71 289.11 70.09 289.11 67.9 288.38 66.07 287.29 66.07 286.92 66.44 286.74 66.8 286.19 67.53 286.19 67.9 285.83 68.63 285.46 73.37 285.46 77.02 286.92 77.39 287.29 76.66"/>
      <polygon points="192.01 61.69 194.2 61.33 194.57 59.5 191.65 54.76 190.19 54.03 189.09 55.85 189.09 58.41 189.82 59.87 192.01 61.69"/>
      <polygon points="43.8 385.85 45.63 384.39 45.63 381.47 44.53 380.01 42.34 380.01 41.61 380.37 40.52 381.47 40.52 384.39 41.61 385.48 43.8 385.85"/>
      <polygon points="78.12 413.59 77.39 413.96 76.29 415.78 76.66 417.97 77.75 419.07 80.31 419.07 81.4 417.97 81.77 415.42 80.67 413.59 78.12 413.59"/>
      <polygon points="616.19 252.61 614 252.61 613.63 252.97 613.27 254.43 615.46 257.72 616.19 257.72 616.19 258.45 617.65 259.54 619.47 259.91 619.47 258.08 617.65 254.43 616.19 252.61"/>
      <polygon points="609.98 115.35 608.52 116.81 608.16 119.37 609.25 123.02 611.08 123.38 612.54 116.81 611.81 115.35 609.98 115.35"/>
      <polygon points="441.33 43.44 439.51 41.61 436.22 40.88 435.13 41.25 432.21 41.98 430.75 43.07 430.71 43.18 430.38 43.44 429.71 45.12 429.65 44.9 428.92 47.09 429.65 48.92 431.48 50.74 432.57 52.93 437.32 53.3 437.78 53.22 438.78 53.3 439.27 52.97 439.51 52.93 439.64 52.72 439.87 52.57 440.42 51.47 441.33 50.01 441.61 49.1 442.06 48.19 441.97 47.9 442.43 46.36 441.33 43.44"/>
      <polygon points="422.8 32.85 423.08 37.96 423.81 39.42 425.64 40.52 427.83 40.15 428.19 37.96 428.92 37.96 430.75 36.87 432.17 34.23 432.21 34.31 433.67 31.69 435.13 29.93 437.32 25.92 436.95 24.46 434.76 24.09 433.67 24.46 431.3 25.64 431.11 25.55 430.02 26.65 430.02 26.89 429.32 27.82 429.29 27.74 428.56 28.84 427.1 29.13 427.1 27.74 425.27 27.38 424.18 28.47 423.08 30.66 422.72 31.39 422.78 32.49 422.72 32.85 422.8 32.85"/>
      <polygon points="598.3 88.7 598.67 88.34 599.76 86.51 599.4 84.69 597.94 83.59 595.75 83.59 594.29 84.69 594.29 87.61 595.38 88.7 598.3 88.7"/>
      <polygon points="24.46 108.05 26.28 108.42 26.65 106.59 25.55 105.13 22.27 101.12 20.44 100.75 20.08 101.12 20.08 102.94 21.17 104.77 24.46 108.05"/>
      <polygon points="80.31 68.26 81.4 67.53 81.04 64.61 80.31 62.42 78.48 61.69 77.02 62.42 77.02 65.71 78.12 67.9 80.31 68.26"/>
      <polygon points="322.7 576.4 321.24 572.38 319.05 570.56 316.86 570.56 316.13 570.92 314.67 572.75 314.3 575.3 315.03 577.13 315.69 579.52 316.49 582.97 317.22 584.43 317.83 584.92 318.32 585.53 318.66 585.58 319.05 585.89 319.83 585.78 320.51 585.89 321.09 585.6 321.6 585.53 321.78 585.25 321.97 585.16 322.33 584.43 323.06 583.34 322.97 583.15 323.43 582.24 322.7 576.4"/>
      <polygon points="608.52 329.63 606.33 329.27 605.97 329.63 607.79 333.28 609.62 335.47 611.44 335.47 612.54 333.65 612.17 332.19 608.52 329.63"/>
      <polygon points="210.26 518.72 211.72 517.63 211.72 515.44 210.63 513.98 207.71 513.98 206.61 515.07 206.61 517.63 207.71 518.72 210.26 518.72"/>
      <polygon points="119.37 475.65 121.56 475.28 123.02 473.46 123.02 467.98 121.56 463.97 120.1 462.14 118.27 462.14 117.18 463.24 115.72 466.52 115.72 469.81 116.08 471.27 117.54 474.55 119.37 475.65"/>
      <polygon points="18.62 163.17 20.81 163.54 22.27 162.81 22.27 160.98 19.35 159.89 16.43 159.89 15.33 160.25 14.97 161.71 16.43 162.81 18.62 163.17"/>
      <polygon points="261.73 575.67 259.54 575.3 257.72 576.4 256.62 578.22 256.26 585.16 256.99 586.26 258.81 587.35 261.37 586.62 262.46 585.53 263.56 582.24 263.56 579.69 263.19 577.86 261.73 575.67"/>
      <polygon points="336.57 77.39 338.39 78.85 340.95 78.85 343.14 78.12 345.33 75.56 347.52 72.28 347.52 69.36 346.79 68.63 344.96 68.63 340.58 70.82 337.66 72.64 336.2 74.83 336.57 77.39"/>
      <polygon points="438.41 13.87 438.41 16.06 438.78 16.43 440.24 16.79 445.35 10.22 445.35 8.03 443.52 6.21 441.33 5.84 439.87 6.21 437.32 8.4 436.22 10.95 436.22 13.87 436.59 14.24 438.41 13.87"/>
      <polygon points="524.56 53.66 526.39 54.03 527.12 53.3 527.12 50.74 524.93 48.19 522.74 48.19 522.37 48.92 522.74 50.74 524.56 53.66"/>
      <polygon points="178.14 17.89 179.97 17.89 180.33 17.52 179.97 15.33 178.14 13.87 173.76 13.14 173.76 14.6 174.85 16.06 178.14 17.89"/>
      <polygon points="169.01 112.43 167.19 113.53 166.82 115.35 168.28 116.81 171.57 116.45 172.3 114.62 171.2 112.8 169.01 112.43"/>
      <polygon points="496.82 547.93 495.36 549.02 495.36 551.58 495.73 552.31 497.19 553.04 498.65 552.67 499.74 551.58 500.11 549.75 499.01 548.29 496.82 547.93"/>
      <polygon points="616.55 136.53 617.65 135.8 618.38 133.97 616.92 132.14 614.36 132.14 613.27 133.24 612.9 135.07 614.36 136.53 616.55 136.53"/>
      <polygon points="520.18 57.68 522.01 56.22 522.01 54.03 520.91 52.93 518.72 52.93 517.63 53.66 517.26 56.22 517.99 57.31 520.18 57.68"/>
      <polygon points="35.04 336.57 35.04 338.76 35.77 339.49 37.96 339.85 39.42 338.76 40.52 336.93 39.06 335.47 36.14 335.47 35.04 336.57"/>
      <polygon points="507.77 491.35 507.04 491.71 505.58 493.17 505.95 495.36 508.5 496.09 510.33 494.63 510.33 492.81 509.6 491.71 507.77 491.35"/>
      <polygon points="615.46 279.99 614 281.08 614 283.27 615.09 284.37 617.65 284.37 618.38 283.64 618.38 281.08 617.65 280.35 615.46 279.99"/>
      <polygon points="224.14 29.2 224.87 28.47 224.87 24.46 224.5 23.73 222.67 23.36 221.94 24.82 221.58 28.11 222.31 29.2 224.14 29.2"/>
      <polygon points="163.9 121.19 162.08 121.92 160.25 124.11 160.25 127.03 160.98 128.13 163.17 129.59 166.82 129.59 168.65 127.76 169.01 125.21 168.28 123.02 166.09 121.19 163.9 121.19"/>
      <polygon points="312.48 36.87 310.28 39.42 309.92 42.34 311.01 43.8 313.57 44.17 315.03 42.71 317.59 42.34 317.95 43.8 319.05 45.63 320.87 46 322.33 44.53 321.97 42.34 319.41 37.96 317.59 35.77 314.67 35.77 312.48 36.87"/>
      <polygon points="110.24 360.66 111.34 359.93 111.7 358.84 110.97 356.65 108.42 356.28 107.69 357.01 106.96 358.84 108.05 360.66 110.24 360.66"/>
      <polygon points="576.76 220.85 577.13 219.75 575.67 219.02 570.92 219.02 570.19 219.39 569.83 220.85 570.56 221.58 574.94 221.58 576.76 220.85"/>
      <polygon points="408.48 19.71 409.58 18.98 409.94 16.43 408.85 15.33 406.66 15.33 405.93 15.7 405.56 18.25 406.66 19.71 408.48 19.71"/>
      <polygon points="108.42 484.04 108.05 484.41 108.42 488.42 109.15 489.15 110.97 489.52 111.7 488.79 111.7 485.87 110.24 484.41 108.42 484.04"/>
      <polygon points="257.35 563.99 257.35 562.16 256.62 561.07 254.8 560.7 252.97 562.16 252.97 563.99 254.07 565.08 256.26 565.08 257.35 563.99"/>
      <polygon points="576.76 299.33 577.49 298.97 577.86 297.14 576.76 295.32 574.57 294.95 573.84 295.68 573.48 297.87 574.57 299.33 576.76 299.33"/>
      <polygon points="309.92 33.58 311.74 33.95 313.21 32.12 313.21 29.93 312.11 27.74 309.92 24.82 308.09 24.46 307.73 25.19 307.73 29.93 308.46 32.12 309.92 33.58"/>
      <polygon points="183.98 94.18 183.98 91.63 183.62 90.9 181.06 90.53 180.33 91.26 179.97 93.45 181.06 94.91 183.25 94.91 183.98 94.18"/>
      <polygon points="459.59 41.61 460.32 43.44 462.14 44.9 464.7 44.9 465.79 44.17 466.7 42.34 466.89 42.34 466.98 41.8 467.25 41.25 467.16 40.7 467.25 40.15 466.98 39.61 466.89 39.06 466.34 38.33 466.16 37.96 466.04 37.94 465.79 37.6 463.6 37.23 462.14 37.6 459.95 39.06 459.59 41.61"/>
      <polygon points="527.85 83.59 527.77 84.57 527.48 85.42 525.66 90.9 523.83 95.28 522.74 95.64 522.01 92.72 519.45 93.09 518.36 94.91 518.36 97.47 519.09 100.75 519.76 101.87 519.82 102.21 519.96 102.21 520.18 102.58 521.64 102.21 524.2 99.29 527.85 93.09 528.17 92.03 528.21 91.99 528.94 89.44 530.4 85.42 531.86 83.96 532.23 81.4 531.86 81.04 530.04 80.67 528.58 82.13 527.85 83.59"/>
      <polygon points="480.39 51.84 481.85 49.28 481.85 47.09 480.39 47.09 479.66 47.46 478.2 49.28 477.84 51.47 478.57 52.2 480.39 51.84"/>
      <polygon points="142.73 436.59 143.46 436.22 143.83 433.67 143.1 432.57 141.27 432.57 140.18 433.3 139.81 435.49 140.54 436.59 142.73 436.59"/>
      <polygon points="406.66 55.12 407.75 54.03 408.12 52.2 407.39 51.47 405.2 51.47 403.74 52.57 403.74 54.76 404.1 55.12 406.66 55.12"/>
      <polygon points="157.7 120.46 158.43 119 158.06 116.81 157.33 116.08 155.51 114.26 155.08 114.15 154.78 113.89 154.63 114.04 154.05 113.89 153.68 114.26 152.59 117.91 153.32 120.1 155.51 121.19 157.7 120.46"/>
      <polygon points="144.56 114.26 145.65 113.53 146.02 111.34 144.92 110.24 143.1 110.24 142 110.97 142 113.16 142.37 113.89 144.56 114.26"/>
      <polygon points="68.26 202.6 66.8 203.69 66.8 205.52 67.17 205.88 69.36 206.25 71.18 205.15 71.18 203.33 70.45 202.6 68.26 202.6"/>
      <polygon points="581.15 311.38 580.78 310.28 578.95 309.92 578.22 310.28 577.49 312.11 577.49 314.67 578.95 315.4 581.15 311.38"/>
      <polygon points="527.85 42.71 528.58 41.98 528.58 39.79 527.85 39.06 526.02 38.69 524.93 39.42 524.56 41.25 525.29 42.34 527.85 42.71"/>
      <polygon points="464.33 33.58 465.43 32.85 465.79 30.3 465.43 29.93 463.6 29.57 462.14 30.66 461.78 32.85 462.51 33.58 464.33 33.58"/>
      <polygon points="605.24 397.89 604.87 398.26 604.51 400.45 605.24 401.18 607.06 401.91 608.16 401.55 608.89 400.08 607.79 398.26 605.24 397.89"/>
      <polygon points="311.01 17.89 311.38 16.06 308.82 15.7 306.63 17.16 306.63 18.98 307.73 19.71 311.01 17.89"/>
      <polygon points="615.46 348.98 614.36 350.07 614 351.9 614.73 352.99 616.55 352.99 617.65 352.26 617.65 349.34 617.28 348.98 615.46 348.98"/>
      <polygon points="573.11 249.69 570.19 248.96 566.91 248.96 566.18 249.32 565.81 250.42 566.54 250.78 572.75 251.15 573.11 249.69"/>
      <polygon points="101.48 406.66 101.85 403.37 101.12 402.28 98.93 400.81 96.01 400.81 94.55 402.64 94.55 405.2 94.91 405.93 97.1 407.75 100.02 407.75 101.12 407.02 101.12 406.93 101.48 406.66"/>
      <polygon points="100.02 79.58 101.85 87.24 104.04 90.17 104.77 95.28 105.5 96.37 105.95 96.71 105.86 96.74 109.88 99.66 112.07 102.58 114.26 102.94 114.62 101.48 110.52 97.72 110.12 97.22 109.15 95.28 108.42 90.9 106.59 82.86 103.67 76.29 102.94 71.55 102.72 71.21 102.58 70.45 102.24 70.11 102.21 69.72 101.48 69.36 98.56 69.36 98.2 69.72 98.2 72.28 98.93 75.93 100.02 79.58"/>
      <polygon points="194.57 36.87 197.49 36.87 198.58 36.14 198.95 33.95 196.03 29.93 195.24 29.62 195.3 29.57 194.2 29.2 193.47 29.57 192.38 31.39 193.11 35.41 194.57 36.87"/>
      <polygon points="596.48 216.1 597.21 215.37 597.21 212.82 596.84 212.45 594.65 212.45 593.56 213.18 593.56 215.37 594.29 216.1 596.48 216.1"/>
      <polygon points="506.68 29.57 508.87 29.2 509.96 28.11 510.69 24.82 509.6 23 507.04 22.63 505.95 23 504.12 24.82 504.12 27.38 504.49 28.11 506.68 29.57"/>
      <polygon points="223.41 519.45 224.14 520.91 224.5 523.1 223.77 523.47 223.04 524.93 224.87 524.93 226.33 524.2 226.69 521.64 225.23 519.82 223.41 519.45"/>
      <polygon points="88.7 481.85 86.15 481.49 83.23 483.31 82.13 484.41 82.13 490.25 83.59 492.08 86.15 492.44 87.97 491.71 89.44 490.62 90.9 489.52 90.9 484.41 90.53 483.68 88.7 481.85"/>
      <polygon points="23.73 296.05 23.36 293.49 21.17 293.13 20.08 294.22 20.44 296.41 23 296.78 23.73 296.05"/>
      <polygon points="126.3 142.37 126.2 143.1 125.94 143.1 125.94 144.92 126.3 145.29 127.03 146.02 127.71 146.13 128.13 146.38 128.68 146.29 129.22 146.38 129.22 146.2 130.32 146.02 132.14 144.56 132.14 142.73 130.68 141.64 127.4 141.64 126.3 142.37"/>
      <polygon points="298.97 567.64 297.87 569.46 297.87 574.57 299.33 574.94 300.06 574.21 301.52 572.02 301.89 568.73 301.16 567.64 298.97 567.64"/>
      <polygon points="222.67 547.2 221.21 548.66 220.85 551.21 222.67 553.04 224.5 553.04 225.96 551.94 225.96 551.58 226.33 551.21 226.33 548.29 225.23 547.2 222.67 547.2"/>
      <polygon points="49.65 155.87 50.01 154.05 48.92 152.59 47.09 152.59 46.36 153.32 46.36 155.14 47.82 156.24 49.65 155.87"/>
      <polygon points="39.06 288.38 37.96 289.84 38.69 291.67 40.52 292.03 41.61 291.3 41.61 289.11 40.88 288.38 39.06 288.38"/>
      <polygon points="129.22 69.36 129.22 67.17 128.86 66.8 127.03 66.44 125.94 67.17 125.94 68.99 127.4 70.45 129.22 69.36"/>
      <polygon points="614.36 404.1 613.63 404.83 613.27 406.29 614.73 407.75 616.92 407.02 616.55 404.47 614.36 404.1"/>
      <polygon points="273.78 522.74 273.05 523.47 273.05 525.29 273.78 526.02 276.34 525.66 276.7 524.56 275.97 522.74 273.78 522.74"/>
      <polygon points="89.44 304.44 88.7 302.98 86.51 302.98 85.78 303.71 85.78 305.9 86.15 306.27 88.34 306.27 89.44 304.44"/>
      <polygon points="335.11 42.71 336.93 40.88 336.57 39.79 334.74 39.79 333.28 40.15 332.55 41.25 333.28 43.07 335.11 42.71"/>
      <polygon points="487.33 42.34 488.79 41.98 489.88 40.88 489.88 38.69 489.15 37.96 486.23 37.96 484.41 39.79 484.41 41.98 484.77 42.34 487.33 42.34"/>
      <polygon points="168.28 480.03 166.82 481.49 166.82 484.41 168.28 485.87 171.2 485.87 171.93 485.5 173.03 483.31 172.66 481.12 171.57 480.03 169.01 479.66 168.28 480.03"/>
      <polygon points="5.11 154.78 5.48 153.32 2.92 153.32 1.1 154.41 .73 156.24 2.92 156.24 5.11 154.78"/>
      <polygon points="380.37 37.96 378.91 37.6 378.18 37.96 377.82 40.52 378.55 41.25 380.37 41.25 381.1 40.52 381.1 38.69 380.37 37.96"/>
      <polygon points="219.39 37.96 219.75 36.5 217.56 34.31 215.74 33.58 215.37 35.04 217.56 37.6 219.39 37.96"/>
      <polygon points="284 39.42 285.1 37.96 284.73 33.22 284.37 32.49 282.91 32.49 281.08 35.41 281.08 37.6 282.18 39.06 284 39.42"/>
      <polygon points="332.92 532.59 334.01 531.5 333.28 527.85 334.01 527.12 333.65 526.02 332.19 525.66 329.27 526.75 329.27 528.58 330 530.4 331.46 532.23 332.92 532.59"/>
      <polygon points="42.34 366.87 39.79 366.5 38.33 367.6 37.6 369.79 37.96 370.39 37.96 370.88 38.69 371.61 41.25 371.98 42.34 371.25 42.4 371.12 42.71 370.88 42.61 370.58 43.07 369.42 42.34 366.87"/>
      <polygon points="442.79 92.36 443.52 91.63 443.89 89.44 442.43 87.61 439.51 87.61 438.78 87.97 438.78 90.53 440.6 92.36 442.79 92.36"/>
      <polygon points="271.96 509.6 270.13 509.6 269.4 510.33 269.4 512.15 270.13 512.88 272.69 512.52 273.05 511.42 271.96 509.6"/>
      <polygon points="588.08 350.44 586.62 351.17 585.53 353.36 585.89 354.82 587.72 356.65 589.91 356.65 591.37 355.18 591.37 352.26 589.91 350.8 588.08 350.44"/>
      <polygon points="554.13 407.02 553.4 408.12 553.4 410.67 554.13 411.4 555.96 412.13 557.78 411.04 557.78 408.12 557.42 407.39 555.23 406.66 554.13 407.02"/>
      <polygon points="74.47 322.33 74.47 320.51 73.74 319.78 71.55 319.78 71.18 320.14 71.18 322.33 71.55 322.7 73.74 323.06 74.47 322.33"/>
      <polygon points="587.35 411.4 586.99 411.77 586.62 413.59 587.35 414.69 589.18 414.69 589.91 413.96 589.91 412.13 589.18 411.4 587.35 411.4"/>
      <polygon points="388.04 37.6 389.13 36.14 388.77 33.95 386.94 32.12 384.75 32.12 384.02 32.85 383.66 34.68 385.85 37.23 388.04 37.6"/>
      <polygon points="597.57 274.51 596.48 275.24 596.48 277.07 597.21 277.8 599.03 277.8 599.76 277.07 599.4 274.88 597.57 274.51"/>
      <polygon points="171.2 129.59 171.2 131.41 172.3 132.14 174.49 132.14 174.85 130.68 173.76 129.22 171.57 129.22 171.2 129.59"/>
      <polygon points="8.76 392.42 8.4 392.78 8.03 394.61 8.76 395.34 10.95 395.34 11.32 394.97 11.32 392.78 10.95 392.42 8.76 392.42"/>
      <polygon points="513.25 631.16 513.25 632.62 514.71 635.9 516.17 636.63 516.53 635.54 514.71 631.89 513.25 631.16"/>
      <polygon points="231.8 85.78 232.9 84.32 232.17 82.86 230.34 82.5 229.61 83.59 229.98 85.42 231.8 85.78"/>
      <polygon points="283.27 556.69 282.18 557.78 282.91 559.61 284.37 559.97 285.46 558.51 285.1 557.05 283.27 556.69"/>
      <polygon points="589.18 198.58 589.18 196.39 588.45 195.66 586.26 194.93 585.53 195.3 584.43 196.39 584.43 198.58 585.16 199.68 587.35 200.04 589.18 198.58"/>
      <polygon points="41.61 184.71 41.98 186.54 44.53 186.54 44.9 184.71 44.17 183.98 42.34 183.98 41.61 184.71"/>
      <polygon points="105.5 399.35 105.13 401.18 106.23 401.91 108.05 401.18 108.05 399.35 106.59 398.62 105.5 399.35"/>
      <polygon points="613.63 221.21 613.27 223.04 614 223.77 616.19 223.41 616.19 221.58 615.82 221.21 614 220.85 613.63 221.21"/>
      <polygon points="598.3 127.03 596.11 128.86 595.38 130.68 596.11 132.87 599.4 135.07 601.59 135.43 603.41 134.7 605.24 132.87 605.6 130.32 604.51 127.76 602.68 126.67 599.4 126.67 598.3 127.03"/>
      <polygon points="240.93 38.33 240.93 36.14 239.47 35.41 238.74 35.77 238.37 38.33 239.47 39.06 240.93 38.33"/>
      <polygon points="314.67 530.77 313.94 528.21 312.48 527.48 312.11 527.85 311.74 528.21 311.74 530.04 312.48 534.78 313.94 535.52 314.67 533.69 314.67 530.77"/>
      <polygon points="21.9 134.34 23 133.24 22.63 131.41 20.81 131.05 20.08 132.51 20.44 133.97 21.9 134.34"/>
      <polygon points="568 76.29 568.73 75.93 569.07 75.49 569.46 75.2 569.64 74.77 571.29 72.64 573.48 71.55 573.84 69.72 572.38 67.9 569.83 67.17 568.73 67.53 566.91 69.72 563.62 73.01 563.26 74.83 564.35 76.29 568 76.29"/>
      <polygon points="528.94 451.92 528.58 453.38 529.67 454.48 531.5 454.48 531.86 453.02 530.77 451.92 528.94 451.92"/>
      <polygon points="607.7 80.31 609.62 77.75 611.44 75.93 611.81 74.47 610.35 73.74 609.62 74.1 607.43 75.93 607.15 76.66 607.06 76.66 605.6 80.67 605.24 82.5 606.33 82.5 607.7 80.31"/>
      <polygon points="579.32 406.66 578.22 405.56 576.76 405.2 576.4 406.29 577.49 408.12 578.95 408.48 579.32 406.66"/>
      <polygon points="158.43 31.03 156.6 30.3 156.97 32.12 157.7 32.12 157.7 32.85 159.16 33.95 160.62 34.31 160.25 33.22 158.43 31.03"/>
      <polygon points="594.65 206.61 594.29 204.79 592.46 204.42 592.1 204.79 591.73 206.25 592.46 206.98 594.29 206.98 594.65 206.61"/>
      <polygon points="621.3 213.55 620.57 214.28 620.93 215.74 622.76 216.1 623.49 215.37 623.12 213.55 621.3 213.55"/>
      <polygon points="616.19 207.71 620.57 207.71 621.66 206.25 621.3 202.6 619.47 200.77 612.54 197.49 609.62 196.76 608.16 197.12 606.33 198.95 606.27 199.32 605.97 199.68 606.09 200.41 605.97 201.14 606.3 201.7 606.33 201.87 606.63 202.23 607.06 202.96 607.43 203.24 607.79 203.69 608.31 203.9 609.98 205.15 612.54 206.21 612.54 206.25 616.19 207.71"/>
      <polygon points="74.83 473.09 71.91 474.55 67.53 475.65 65.34 477.47 64.65 478.64 64.61 478.57 63.15 481.12 60.6 484.04 57.31 484.77 56.95 484.96 56.22 485.14 55.12 486.23 55.39 486.23 54.03 488.42 54.03 491.71 54.76 493.54 56.22 495 58.77 495 60.96 493.54 62.79 490.62 64.25 489.15 68.99 486.6 73.37 486.6 74.83 484.41 76.29 483.68 78.12 481.85 78.12 478.2 78.85 477.11 79.21 474.55 77.75 473.46 74.83 473.09"/>
      <polygon points="453.38 43.8 453.38 41.98 451.56 41.98 450.83 42.34 450.83 44.17 452.65 44.53 453.38 43.8"/>
      <polygon points="247.13 528.21 247.5 529.67 249.32 530.04 249.69 527.85 248.23 527.12 247.13 528.21"/>
      <polygon points="609.98 425.64 610.71 427.46 612.54 427.1 612.54 425.27 611.08 424.54 609.98 425.64"/>
      <polygon points="366.14 68.99 365.77 66.44 364.31 66.44 363.95 66.8 364.31 69.36 366.14 68.99"/>
      <polygon points="141.27 14.97 141.64 13.14 139.81 12.41 139.08 12.78 139.08 14.24 140.18 15.33 141.27 14.97"/>
      <polygon points="381.1 3.65 382.56 2.92 382.56 1.1 380.74 .73 380.01 1.83 380.37 3.29 381.1 3.65"/>
      <polygon points="173.03 457.76 171.2 457.4 170.84 457.76 170.47 459.22 171.2 459.95 173.03 459.59 173.03 457.76"/>
      <polygon points="393.51 56.58 396.07 56.58 396.43 56.22 398.62 52.93 398.26 51.11 396.07 49.65 396.8 48.19 396.43 46.36 393.51 45.63 392.78 46 391.32 47.82 390.96 49.65 393.51 50.74 394.24 52.57 393.15 54.76 393.51 56.58"/>
      <polygon points="636.27 287.29 635.9 289.11 638.46 289.48 638.82 289.11 638.46 287.65 636.27 287.29"/>
      <polygon points="197.49 495 197.85 492.81 197.12 492.81 195.3 495.36 194.2 496.21 193.84 496.46 193.85 496.49 192.01 497.92 192.01 498.65 191.28 498.65 190.55 500.11 189.82 500.11 189.82 500.84 189.09 500.84 185.81 503.76 186.17 505.22 188 504.85 190.55 502.66 194.11 499.38 194.2 499.38 195.3 498.28 196.27 496.82 196.39 496.82 197.49 495"/>
      <polygon points="82.13 502.3 82.5 504.12 84.32 504.49 84.32 502.3 82.86 501.57 82.13 502.3"/>
      <polygon points="112.8 71.18 112.8 73.01 114.62 73.37 115.35 72.64 114.99 71.18 113.53 70.82 112.8 71.18"/>
      <polygon points="288.53 63.52 288.75 63.52 290.21 59.14 290.94 54.03 290.94 51.11 290.94 50.38 289.11 50.01 288.02 51.84 288.02 55.85 287.29 58.77 287.29 63.52 288.38 63.88 288.53 63.52"/>
      <polygon points="281.45 75.56 281.81 77.39 283.27 77.39 284 76.29 283.64 75.2 281.81 74.83 281.45 75.56"/>
      <polygon points="78.48 89.07 79.21 88.34 78.85 86.88 77.39 86.51 76.66 87.24 77.02 88.7 78.48 89.07"/>
      <polygon points="343.5 63.15 343.5 64.98 343.87 65.34 345.69 64.98 345.33 63.15 343.87 62.79 343.5 63.15"/>
      <polygon points="60.96 391.6 61.33 391.69 61.64 391.43 62.06 391.32 62.17 390.99 63.52 389.86 63.52 388.04 62.79 386.94 60.96 385.85 60.96 389.5 60.6 389.86 59.87 391.32 60.6 391.69 60.96 391.6"/>
      <polygon points="456.1 73.7 455.94 73.37 454.11 73.01 453.02 73.37 451.56 74.47 451.92 76.29 454.48 76.29 456.3 74.1 456.21 73.92 456.3 73.74 456.1 73.7"/>
      <polygon points="374.17 30.66 374.78 30.54 375.26 30.66 375.66 30.36 375.99 30.3 376.24 29.93 376.72 29.57 377.34 28.28 377.45 28.11 378.18 26.65 380.37 22.27 380.24 22.22 380.74 21.17 380.37 19.71 378.55 19.35 375.99 20.44 375.04 22.34 374.9 22.27 373.44 25.55 373.44 27.74 373.44 29.93 373.8 30.3 374.17 30.66"/>
      <polygon points="547.56 92.72 547.56 93.45 548.29 93.45 548.29 94.18 548.57 94.27 548.66 94.55 549.02 97.1 550.12 97.1 550.85 96.37 551.58 94.55 550.88 91.4 551.21 89.07 551.21 86.51 550.48 85.78 547.93 84.69 546.47 85.42 545.74 87.61 546.83 92.72 547.56 92.72"/>
      <polygon points="426.37 50.38 427.83 50.38 427.83 47.46 426.73 47.09 426.37 47.46 426.37 50.38"/>
      <polygon points="99.66 116.45 100.39 117.18 101.85 116.81 101.85 114.99 100.39 114.62 100.02 114.99 99.66 116.45"/>
      <polygon points="627.51 255.53 625.68 255.53 625.32 256.99 626.05 257.35 627.87 256.99 627.51 255.53"/>
      <polygon points="478.93 498.65 480.76 499.01 481.12 497.19 480.03 496.82 479.3 497.19 478.93 498.65"/>
      <polygon points="546.47 436.22 547.56 437.68 549.75 439.14 552.31 439.14 552.67 438.78 552.67 436.59 550.48 430.38 549.39 428.92 545.74 426.37 544.28 423.81 544.28 419.8 543.55 417.97 541.72 415.05 539.9 414.32 539.17 414.69 539.53 417.97 539.9 419.8 536.98 419.8 534.78 419.43 534.44 419.55 534.05 419.43 532.59 420.16 532.59 421.99 534.78 423.45 535.88 424.18 536.26 424.08 537.34 424.54 539.53 425.64 543.91 428.92 545.74 430.75 546.1 433.49 546.1 434.03 546.47 436.22"/>
      <polygon points="596.11 124.48 598.67 124.48 599.76 123.75 600.49 121.92 600.13 119.73 598.67 118.27 596.48 117.91 595.38 118.27 593.92 119.73 593.56 121.56 594.29 123.02 596.11 124.48"/>
      <polygon points="559.61 102.21 562.53 100.75 562.89 98.93 562.16 98.2 559.24 98.2 556.69 99.66 556.32 101.48 557.42 102.21 559.61 102.21"/>
      <polygon points="517.26 639.55 516.9 639.92 517.26 641.74 519.09 641.38 518.72 639.92 517.26 639.55"/>
      <polygon points="77.75 193.47 77.91 193.49 78.48 193.84 79.4 193.71 80.31 193.84 80.61 193.53 81.04 193.47 81.04 193.11 81.4 192.74 81.77 187.63 82.5 187.63 83.96 186.54 86.15 183.25 85.78 180.7 84.69 179.6 80.31 177.41 75.56 177.41 73.37 179.24 71.91 182.16 71.91 185.81 72.28 186.54 75.56 189.46 76.29 192.01 76.66 192.38 76.66 192.74 77.75 193.47"/>
      <polygon points="232.17 88.34 232.9 89.44 234.36 89.07 234.36 87.24 232.9 87.24 232.17 88.34"/>
      <polygon points="60.6 324.16 62.06 324.52 62.79 323.43 62.42 322.7 60.96 322.33 60.6 324.16"/>
      <polygon points="455.94 60.6 454.48 59.14 454.11 56.58 453.02 55.12 452.48 55.04 452.29 54.76 450.46 54.76 450.1 56.22 451.19 57.68 451.4 57.78 451.92 58.41 452.65 58.41 452.29 60.23 450.46 60.23 449 58.77 446.81 58.77 445.71 60.23 446.08 62.42 447.91 63.88 449 63.15 451.19 62.79 451.19 63.52 450.46 64.98 450.1 66.44 453.02 67.53 454.84 66.8 454.84 63.52 455.33 63.03 455.57 63.15 456.3 62.06 455.94 60.6"/>
      <polygon points="295.32 71.55 293.86 71.18 293.49 73.01 294.95 73.37 295.32 71.55"/>
      <polygon points="491.35 558.51 490.98 559.24 491.35 560.34 493.17 559.97 492.81 558.51 491.35 558.51"/>
      <polygon points="94.55 492.81 96.37 493.17 96.37 491.71 94.18 491.71 94.55 492.81"/>
      <polygon points="514.71 100.39 512.88 100.02 512.88 101.48 514.34 101.85 514.71 100.39"/>
      <polygon points="192.38 532.59 192.74 535.15 193.84 535.15 193.47 532.96 192.38 532.59"/>
      <polygon points="382.93 58.77 381.47 58.04 381.1 59.87 382.2 60.23 382.93 58.77"/>
      <polygon points="75.93 302.98 75.2 303.35 75.2 304.44 76.66 304.81 77.02 303.35 75.93 302.98"/>
      <polygon points="86.15 79.94 84.69 79.21 84.32 80.67 86.15 81.04 86.15 79.94"/>
      <polygon points="480.76 5.84 479.3 5.84 478.93 6.94 480.39 7.67 480.76 5.84"/>
      <polygon points="518.36 507.77 518.36 508.5 519.45 509.23 520.55 508.87 520.55 508.14 519.09 507.41 518.36 507.77"/>
      <polygon points="39.06 375.99 38.69 377.45 39.79 377.82 40.52 376.36 39.06 375.99"/>
      <polygon points="198.58 1.83 197.12 1.46 196.76 2.92 198.58 2.92 198.58 1.83"/>
      <polygon points="44.9 180.33 46 180.7 46.36 179.24 44.9 178.87 44.9 180.33"/>
      <polygon points="486.6 105.86 487.69 106.23 488.42 105.13 486.96 104.4 486.6 105.86"/>
      <polygon points="394.61 2.56 393.51 2.19 393.15 3.65 394.24 4.02 394.61 2.56"/>
      <polygon points="559.97 88.34 558.51 87.97 558.15 89.44 559.24 89.44 559.97 88.34"/>
      <polygon points="64.25 317.95 64.61 316.86 63.15 316.49 62.79 317.22 64.25 317.95"/>
      <polygon points="316.86 33.22 317.22 31.76 316.49 31.39 315.76 32.85 316.86 33.22"/>
      <polygon points="488.79 554.86 489.52 554.86 489.88 553.77 488.42 553.4 488.79 554.86"/>
      <polygon points="627.14 416.51 626.78 417.97 628.24 417.61 627.87 416.51 627.14 416.51"/>
      <polygon points="5.48 380.74 6.57 381.1 6.94 380.01 5.48 379.64 5.48 380.74"/>
      <rect x="18.77" y="155.66" width="1.15" height="1.15" transform="translate(-134.99 125.19) rotate(-71.57)"/>
      <polygon points="263.19 523.83 262.83 524.2 263.92 525.29 264.29 524.2 263.19 523.83"/>
      <polygon points="637.36 435.86 638.46 435.86 638.46 434.76 637.73 434.4 637.36 435.86"/>
      <rect x="580.42" y="431.11" width="1.1" height="1.1"/>
      <polygon points="61.69 289.11 62.79 289.11 62.79 288.02 62.06 288.02 61.69 289.11"/>
      <polygon points="434.03 17.16 432.94 17.16 432.94 17.89 433.67 18.25 434.03 17.16"/>
      <rect x="449" y="39.42" width="1.1" height=".73"/>
      <rect x="571.65" y="286.92" width=".73" height=".73"/>
      <polygon points="152.59 131.78 153.68 132.14 152.95 131.41 152.59 131.78"/>
      <rect x="137.26" y="59.87" width=".73" height=".73"/>
      <polygon points="305.54 78.85 305.54 79.58 306.27 79.58 305.54 78.85"/>
      <polygon points="414.69 22.27 413.96 22.27 414.32 23 414.69 22.27"/>
    </g>
  </g>
</svg>